<svg xmlns="http://www.w3.org/2000/svg" width="512" height="512" viewBox="0 0 512 512" fill="none"><metadata><rdf:RDF xmlns:rdf="http://www.w3.org/1999/02/22-rdf-syntax-ns#" xmlns:dc="http://purl.org/dc/elements/1.1/"><rdf:Description><dc:creator>RealFaviconGenerator</dc:creator><dc:source>https://realfavicongenerator.net</dc:source></rdf:Description></rdf:RDF></metadata><rect width="512" height="512" fill="#F5F5F5"></rect><rect width="512" height="512" rx="97" fill="#0D3B66"></rect><path d="M202 365C191.667 365 178.833 364.5 163.5 363.5C148.167 362.5 134.167 362 121.5 362C109.5 362 98.1667 362.167 87.5 362.5C76.8333 362.833 67.3333 363 59 363C58.3333 363 58 362 58 360C58 358 58.3333 357 59 357C69.6667 357 77.8333 356.167 83.5 354.5C89.1667 352.833 92.8333 349.5 94.5 344.5C96.5 339.5 97.5 332.167 97.5 322.5V91C97.5 81.3333 96.5 74.1667 94.5 69.5C92.8333 64.5 89.3333 61.1667 84 59.5C78.6667 57.5 70.5 56.5 59.5 56.5C58.8333 56.5 58.5 55.5 58.5 53.5C58.5 51.5 58.8333 50.5 59.5 50.5C68.1667 50.5 77.6667 50.8333 88 51.5C98.3333 51.8333 109.5 52 121.5 52C133.167 52 145.833 51.6667 159.5 51C173.5 50 185.333 49.5 195 49.5C230 49.5 260.5 56.1667 286.5 69.5C312.5 82.8333 332.667 101 347 124C361.333 147 368.5 172.833 368.5 201.5C368.5 226.5 364.167 249.167 355.5 269.5C346.833 289.5 334.667 306.667 319 321C303.667 335 285.833 345.833 265.5 353.5C245.5 361.167 224.333 365 202 365ZM197 355C220 355 240.333 349.5 258 338.5C275.667 327.5 289.5 311.5 299.5 290.5C309.833 269.167 315 243.167 315 212.5C315 183.833 310.333 158 301 135C291.667 111.667 278.333 93.3333 261 80C244 66.3333 223.667 59.5 200 59.5C180.333 59.5 166.167 61.3333 157.5 65C149.167 68.6667 145 77.6667 145 92V317C145 330 148.333 339.667 155 346C161.667 352 175.667 355 197 355Z" fill="#F8F8F4"></path><path d="M376 333.04L380.18 328.86C395.127 328.86 408.173 331.647 419.32 337.22C430.72 342.793 439.46 350.393 445.54 360.02C451.873 369.647 455.04 380.667 455.04 393.08C455.04 406.507 451.747 418.667 445.16 429.56C438.573 440.453 429.453 449.067 417.8 455.4C406.4 461.48 393.607 464.52 379.42 464.52C371.313 464.52 362.067 464.14 351.68 463.38C341.547 462.62 332.173 462.24 323.56 462.24C315.2 462.24 307.093 462.367 299.24 462.62C291.64 462.873 284.673 463 278.34 463C277.833 463 277.58 462.24 277.58 460.72C277.58 459.2 277.833 458.44 278.34 458.44C287.46 458.44 294.427 457.807 299.24 456.54C304.053 455.273 307.347 452.74 309.12 448.94C310.893 445.14 311.78 439.567 311.78 432.22V256.28C311.78 248.933 315.773 245.047 314 241.5C312.48 237.7 322.313 242.767 317.5 241.5C315.5 243.5 323.62 236.5 314.5 236.5C313.74 236.5 316 233.86 316 232.34C316 230.82 314.74 229 315.5 229C321.58 229 309.9 228.493 317.5 229C325.1 229.253 315.2 226.64 323.56 226.64C330.147 226.64 337.747 226.26 346.36 225.5C354.973 224.74 362.32 224.36 368.4 224.36C383.347 224.36 395.507 226.64 404.88 231.2C414.253 235.507 421.093 241.46 425.4 249.06C429.96 256.66 432.24 265.147 432.24 274.52C432.24 288.96 426.92 301.247 416.28 311.38C405.893 321.513 392.467 328.733 376 333.04ZM360.04 230.06C354.213 230.06 349.527 230.567 345.98 231.58C342.433 232.593 339.9 235 338.38 238.8C336.86 242.347 336.1 248.427 336.1 257.04V331.52L323.94 328.48C332.047 328.987 338.76 329.367 344.08 329.62C349.4 329.62 352.44 329.62 353.2 329.62C372.707 329.62 386.64 324.68 395 314.8C403.36 304.667 407.54 292.253 407.54 277.56C407.54 268.693 405.893 260.713 402.6 253.62C399.56 246.273 394.62 240.573 387.78 236.52C380.94 232.213 371.693 230.06 360.04 230.06ZM373.72 457.68C392.72 457.68 406.527 452.867 415.14 443.24C424.007 433.36 428.44 419.807 428.44 402.58C428.44 383.58 422.867 368 411.72 355.84C400.573 343.68 384.993 337.6 364.98 337.6C358.647 337.347 352.06 337.347 345.22 337.6C338.633 337.853 331.92 338.487 325.08 339.5L336.1 335.32V432.22C336.1 438.3 336.987 443.24 338.76 447.04C340.533 450.84 344.08 453.627 349.4 455.4C354.973 456.92 363.08 457.68 373.72 457.68Z" fill="#F8F8F4"></path><path d="M197.786 314.145C197.373 314.451 197.063 314.891 196.945 315.403C196.827 315.913 196.908 316.449 197.174 316.898C197.439 317.347 197.873 317.68 198.382 317.831C198.892 317.981 199.433 317.933 199.907 317.73C199.907 317.73 199.907 317.73 199.907 317.73C200.035 317.669 200.178 317.606 200.407 317.453C200.635 317.307 200.938 317.009 201.086 316.816C201.379 316.439 201.449 316.336 201.585 316.168C201.828 315.866 202.082 315.569 202.35 315.266C202.886 314.661 203.464 314.045 204.042 313.444C205.212 312.229 206.415 311.033 207.646 309.819C208.004 309.469 208.362 309.131 208.726 308.795C212.251 305.358 216.444 303.377 220.892 298.572C223.713 294.376 223.314 291.995 223.686 289.258C223.865 286.611 223.803 284.082 223.632 281.571C223.274 276.568 222.46 271.676 221.238 266.821C220.846 265.273 220.443 263.791 219.997 262.258C216.77 250.424 211.1 240.419 210.857 230.084C210.466 219.552 213.371 207.51 217.375 197.073C222.741 183.799 228.38 170.383 232.636 156.254C236.497 147.452 234.618 138.652 234.861 130.311C234.777 127.769 236.014 124.526 237.591 121.597C238.387 120.115 239.291 118.657 240.266 117.242C240.754 116.534 241.261 115.836 241.777 115.166C242.04 114.826 242.296 114.503 242.553 114.196C242.604 114.134 242.685 114.041 242.727 113.991C242.745 113.969 242.784 113.927 242.789 113.919C242.792 113.915 242.8 113.906 242.779 113.924C242.767 113.934 242.748 113.952 242.704 113.988C242.681 114.006 242.653 114.029 242.609 114.061C242.587 114.077 242.562 114.096 242.529 114.118C242.513 114.129 242.496 114.141 242.476 114.153C242.463 114.162 242.466 114.16 242.435 114.18C242.353 114.23 242.248 114.295 242.037 114.384C241.816 114.458 241.516 114.633 240.702 114.576C240.301 114.538 239.722 114.375 239.215 113.968C238.702 113.569 238.377 112.989 238.252 112.556C238.014 111.669 238.172 111.299 238.216 111.049C238.281 110.807 238.337 110.687 238.379 110.593C238.435 110.475 238.416 110.517 238.426 110.497C238.43 110.489 238.435 110.481 238.439 110.473C238.447 110.457 238.455 110.442 238.462 110.429C238.492 110.377 238.513 110.342 238.531 110.314C238.566 110.259 238.585 110.234 238.597 110.218C238.621 110.186 238.613 110.199 238.612 110.202C238.605 110.213 238.584 110.243 238.553 110.284C238.512 110.34 238.455 110.415 238.381 110.507C237.968 111.021 237.583 111.503 237.215 111.948C237.188 111.983 237.11 112.072 237.145 112.039C237.168 112.018 237.094 112.083 237.266 111.927C237.32 111.883 237.368 111.83 237.591 111.685C237.719 111.614 237.855 111.5 238.342 111.365C238.592 111.308 238.966 111.222 239.576 111.346C240.175 111.447 241.005 111.982 241.36 112.622C242.037 113.944 241.691 114.426 241.676 114.702C241.606 114.968 241.533 115.11 241.514 115.153C241.48 115.227 241.454 115.275 241.433 115.313C241.28 115.573 241.286 115.538 241.273 115.561C241.268 115.565 241.281 115.546 241.297 115.523C241.374 115.417 241.467 115.294 241.552 115.181C241.737 114.937 241.931 114.686 242.115 114.448C242.89 113.45 243.655 112.48 244.442 111.492C246.904 108.427 249.452 105.193 251.984 102.538C252.363 102.166 252.589 101.66 252.604 101.121C252.619 100.582 252.422 100.055 252.055 99.6546C251.689 99.2544 251.18 99.0112 250.64 98.9765C250.099 98.9417 249.572 99.1201 249.166 99.4616C249.166 99.4616 249.166 99.4616 249.166 99.4616C245.97 102.33 243.361 105.226 240.599 108.185C239.731 109.128 238.889 110.049 238.022 111.018C237.815 111.249 237.598 111.493 237.378 111.744C237.331 111.796 237.266 111.872 237.21 111.937C237.153 112.003 237.108 112.055 237.032 112.146C236.993 112.194 236.988 112.197 236.917 112.289C236.871 112.356 236.855 112.352 236.694 112.628C236.672 112.669 236.645 112.718 236.61 112.793C236.591 112.838 236.517 112.982 236.447 113.249C236.431 113.527 236.085 114.009 236.762 115.332C237.118 115.972 237.948 116.507 238.547 116.608C239.157 116.732 239.532 116.646 239.782 116.589C240.271 116.453 240.408 116.339 240.537 116.267C240.764 116.121 240.817 116.064 240.876 116.015C241.084 115.825 241.017 115.882 241.049 115.852C241.158 115.744 241.238 115.657 241.287 115.607C241.769 115.099 242.167 114.668 242.627 114.166C242.727 114.056 242.813 113.959 242.893 113.869C242.952 113.8 243.005 113.737 243.058 113.671C243.085 113.638 243.108 113.611 243.177 113.516C243.209 113.473 243.243 113.425 243.289 113.352C243.313 113.314 243.34 113.271 243.373 113.211C243.381 113.196 243.39 113.18 243.4 113.162C243.404 113.154 243.409 113.144 243.414 113.135C243.424 113.114 243.404 113.159 243.464 113.032C243.509 112.933 243.567 112.808 243.632 112.562C243.678 112.308 243.835 111.936 243.598 111.046C243.472 110.612 243.146 110.031 242.633 109.632C242.125 109.225 241.545 109.061 241.143 109.023C240.327 108.965 240.024 109.141 239.799 109.217C239.584 109.307 239.475 109.375 239.388 109.428C239.354 109.449 239.358 109.447 239.344 109.457C239.322 109.47 239.303 109.483 239.285 109.496C239.249 109.52 239.22 109.541 239.194 109.56C239.143 109.598 239.105 109.628 239.073 109.655C239.009 109.707 238.966 109.745 238.927 109.781C238.841 109.859 238.84 109.86 238.799 109.899C238.738 109.956 238.653 110.042 238.617 110.076C238.528 110.164 238.407 110.289 238.333 110.365C237.971 110.743 237.658 111.086 237.332 111.455C236.695 112.174 236.083 112.907 235.489 113.657C234.303 115.154 233.187 116.711 232.158 118.36C230.156 121.684 228.193 125.256 227.931 130.087C227.263 138.318 228.404 147.201 224.76 153.563C220.047 166.846 214.001 179.825 208.177 193.055C203.339 204.877 199.92 216.678 200.115 230.426C200.432 243.533 206.699 254.565 209.431 265.097C209.847 266.528 210.236 267.91 210.628 269.356C211.784 273.631 212.712 278.039 213.329 282.385C213.633 284.558 213.858 286.728 213.919 288.77C213.948 289.788 213.934 290.768 213.856 291.619C213.819 292.03 213.761 292.422 213.709 292.689C213.666 292.955 213.582 293.119 213.743 292.953C211.627 296.171 206.933 299.886 203.745 304.348C203.409 304.799 203.084 305.252 202.761 305.717C201.752 307.185 200.782 308.648 199.836 310.175C199.368 310.934 198.9 311.715 198.451 312.533C198.228 312.939 198.003 313.369 197.797 313.799C197.703 314.001 197.566 314.274 197.609 314.25C197.63 314.233 197.783 314.091 197.837 314.073C197.892 314.049 197.851 314.094 197.786 314.145Z" fill="#F8F8F4"></path><path d="M210.902 186.384C211.724 187.614 212.971 188.435 214.424 188.624C215.874 188.816 217.411 188.36 218.642 187.399C219.873 186.439 220.682 185.064 220.837 183.621C220.996 182.174 220.487 180.777 219.477 179.694C219.477 179.694 219.477 179.694 219.477 179.694C218.775 178.909 218.219 178.399 217.622 177.843C214.506 175.063 211.621 172.66 207.557 170.376C206.803 170.3 205.061 168.088 203.825 165.834C202.489 163.519 201.282 160.923 199.533 158.238L199.847 159.026C198.707 156.143 198.418 153.102 194.929 149.846C194.915 149.831 194.864 149.795 194.849 149.781C194.447 149.514 194.084 149.297 193.758 149.092C193.209 148.75 192.737 148.423 192.27 148.034C191.88 147.702 191.357 147.532 190.832 147.545C190.305 147.559 189.82 147.755 189.466 148.107C189.111 148.459 188.912 148.942 188.895 149.467C188.878 149.991 189.045 150.515 189.376 150.905C189.376 150.905 189.376 150.905 189.376 150.905C189.91 151.525 190.526 152.119 191.112 152.629C191.458 152.933 191.782 153.206 192.048 153.454L191.968 153.389C192.813 154.39 193.485 157.632 193.908 160.356C193.964 160.523 194.123 160.998 194.222 161.144C196.634 165.729 195.941 171.502 203.04 177.868C205.268 179.638 207.869 182.446 209.937 185.043C210.319 185.53 210.719 186.062 210.902 186.384Z" fill="#F8F8F4"></path><path d="M207.48 258.889C208.495 259.837 209.889 260.301 211.388 260.146C212.885 259.993 214.364 259.232 215.467 258.066C216.57 256.9 217.197 255.434 217.177 254.025C217.16 252.614 216.497 251.376 215.369 250.548C215.369 250.548 215.369 250.548 215.369 250.548C214.443 249.862 213.547 249.247 212.641 248.643C208.406 245.876 204.194 243.295 198.905 241.317C188.47 237.88 178.577 236.221 170.375 231.256L170.657 231.481C167.786 229.192 165.012 227.032 160.92 225.603C160.898 225.594 160.827 225.575 160.804 225.567C160.513 225.498 160.228 225.438 159.947 225.383C158.817 225.163 157.734 225.004 156.665 224.842C156.148 224.765 155.586 224.895 155.108 225.189C154.629 225.484 154.274 225.919 154.114 226.412C153.954 226.906 154.002 227.423 154.242 227.865C154.482 228.306 154.895 228.636 155.394 228.767C156.425 229.037 157.446 229.301 158.389 229.594C158.623 229.666 158.85 229.741 159.066 229.817L158.95 229.781C161.484 230.979 164.13 233.328 166.358 235.639C166.414 235.685 166.577 235.826 166.64 235.864C175.071 242.399 185.912 245.461 194.521 249.454C198.187 251.301 201.94 254.132 205.363 257.01C206.094 257.631 206.839 258.282 207.48 258.889Z" fill="#F8F8F4"></path><path d="M188.573 244.45C189.11 245.822 190.155 246.896 191.534 247.41C192.91 247.926 194.507 247.841 195.918 247.198C197.329 246.556 198.424 245.415 198.907 244.052C199.392 242.688 199.226 241.214 198.499 239.929C198.499 239.929 198.499 239.929 198.499 239.929C198.071 239.161 197.639 238.421 197.203 237.689C193.786 232.28 191.257 227.463 185.575 221.954C181.155 218.391 176.643 213.253 172 208.726L172.066 208.803C171.326 208.042 170.812 207.338 170.29 206.308C169.922 205.592 169.61 204.863 169.321 204.07C169.064 203.365 168.828 202.629 168.603 201.877C168.457 201.385 168.107 200.954 167.652 200.676C167.195 200.398 166.671 200.294 166.172 200.393C165.673 200.492 165.236 200.785 164.936 201.213C164.636 201.641 164.498 202.168 164.573 202.674C164.573 202.674 164.573 202.674 164.573 202.674C164.697 203.501 164.837 204.332 165.017 205.183C165.216 206.131 165.479 207.122 165.81 208.078C166.246 209.41 167.018 210.947 167.918 212.155C167.931 212.17 167.969 212.218 167.983 212.232C171.957 217.332 175.248 222.569 180.204 227.925C182.706 231.168 185.549 237.249 187.719 242.336C188.018 243.049 188.311 243.767 188.573 244.45Z" fill="#F8F8F4"></path><path d="M201.871 230.999C201.125 232.224 200.925 233.694 201.337 235.101C201.748 236.507 202.738 237.734 204.065 238.497C205.392 239.261 206.941 239.496 208.347 239.135C209.755 238.776 210.904 237.851 211.566 236.578C211.566 236.578 211.566 236.578 211.566 236.578C211.267 237.073 211.282 236.991 211.272 237.011C211.274 237.002 211.307 236.956 211.349 236.902C211.431 236.797 211.545 236.659 211.674 236.509C211.915 236.227 212.202 235.903 212.478 235.596C213.045 234.964 213.636 234.321 214.228 233.678C218.673 228.874 223.227 224.013 227.628 218.986C233.181 210.238 234.286 204.08 237.309 196.751C242.143 182.755 243.587 169.075 246.862 155.593L246.849 155.64C247.791 151.917 248.786 148.236 250.14 144.77C250.176 144.676 250.214 144.579 250.251 144.486C250.841 142.969 251.511 141.478 252.165 139.892C252.363 139.41 252.355 138.854 252.152 138.351C251.947 137.848 251.564 137.439 251.076 137.21C250.589 136.982 250.035 136.951 249.527 137.12C249.02 137.289 248.601 137.644 248.371 138.112C248.371 138.112 248.371 138.112 248.371 138.112C247.655 139.571 246.859 141.071 246.134 142.625C246.089 142.72 246.043 142.819 245.997 142.915C244.287 146.573 243.01 150.332 241.799 154.067C241.797 154.076 241.788 154.105 241.786 154.114C237.645 167.426 235.031 181.583 229.941 193.558C226.902 200.097 223.42 208.641 220.613 212.522C216.021 217.118 211.258 221.578 206.443 226.139C205.795 226.755 205.144 227.376 204.479 228.025C204.153 228.343 203.807 228.685 203.463 229.036C203.277 229.227 203.098 229.413 202.898 229.632C202.792 229.749 202.681 229.874 202.548 230.033C202.392 230.235 202.266 230.337 201.871 230.999Z" fill="#F8F8F4"></path><path d="M225.119 208.959C223.681 209.193 222.443 209.989 221.688 211.22C220.933 212.448 220.723 214.009 221.093 215.514C221.462 217.019 222.378 218.33 223.628 219.111C224.878 219.895 226.358 220.086 227.756 219.688C227.756 219.688 227.756 219.688 227.756 219.688C228.25 219.565 228.372 219.508 228.585 219.435C228.738 219.379 228.914 219.312 229.045 219.259C229.327 219.146 229.577 219.04 229.847 218.925C230.342 218.712 230.842 218.488 231.312 218.273C241.882 213.33 251.703 207.774 261.477 201.948C261.549 201.916 261.746 201.787 261.813 201.746C266.644 198.071 271.45 193.744 275.873 190.628L275.717 190.702C276.212 190.445 276.691 190.253 277.28 190.075C278.125 189.82 279.091 189.606 280.06 189.394C280.564 189.285 281.009 188.968 281.3 188.53C281.591 188.091 281.705 187.568 281.612 187.057C281.52 186.546 281.229 186.086 280.8 185.76C280.371 185.435 279.84 185.272 279.326 185.323C279.326 185.323 279.326 185.323 279.326 185.323C278.302 185.428 277.282 185.528 276.164 185.726C275.397 185.861 274.545 186.081 273.767 186.377C273.736 186.392 273.641 186.433 273.611 186.451C267.697 189.656 263.102 193.046 257.872 196.128L258.209 195.925C248 200.518 237.585 204.89 227.215 208.35C226.77 208.494 226.303 208.642 225.88 208.767C225.652 208.836 225.447 208.894 225.258 208.945C225.17 208.967 225.067 208.994 225.011 209.004C224.961 209.016 224.84 209.033 225.119 208.959Z" fill="#F8F8F4"></path><path d="M240.958 174.575C239.482 174.665 238.202 175.33 237.424 176.529C236.644 177.722 236.43 179.35 236.804 180.951C237.178 182.552 238.103 183.965 239.35 184.775C240.599 185.591 242.069 185.738 243.46 185.286C243.46 185.286 243.46 185.286 243.46 185.286C244.012 185.123 244.526 184.95 245.025 184.77C250.544 182.721 255.319 179.806 259.479 176.168C259.617 176.097 259.926 175.774 260.043 175.674C261.448 173.704 262.654 171.502 263.638 169.575L263.579 169.654C263.737 169.37 263.802 169.226 263.939 169.04C264.072 168.858 264.27 168.655 264.509 168.448C264.787 168.206 265.111 167.961 265.453 167.719C265.846 167.446 266.118 166.997 266.226 166.502C266.333 166.006 266.268 165.504 266.027 165.076C265.786 164.648 265.384 164.32 264.892 164.133C264.401 163.947 263.86 163.919 263.405 164.083C263.405 164.083 263.405 164.083 263.405 164.083C262.943 164.258 262.477 164.445 261.99 164.68C261.19 165.037 260.123 165.792 259.481 166.511C259.471 166.528 259.431 166.573 259.422 166.591C257.855 168.328 256.462 169.772 254.849 171.11L255.413 170.616C251.197 172.719 246.528 174.067 242.064 174.509C241.679 174.543 241.289 174.57 240.958 174.575Z" fill="#F8F8F4"></path><path d="M219.11 287.969C217.65 287.999 216.303 288.611 215.369 289.71C214.434 290.806 213.989 292.3 214.128 293.822C214.267 295.345 214.977 296.76 216.099 297.718C217.221 298.678 218.663 299.101 220.11 298.935C220.11 298.935 220.11 298.935 220.11 298.935C221.532 298.775 222.753 298.578 224.016 298.377C234.286 296.623 244.198 294.728 254.366 291.773C254.661 291.711 255.387 291.34 255.638 291.178C263.682 284.543 271.574 278.484 280.091 272.666L280.049 272.691C281.383 271.814 282.668 270.972 283.931 270.367C284.888 269.904 285.931 269.549 287.069 269.217C287.568 269.072 287.992 268.724 288.251 268.263C288.509 267.801 288.582 267.264 288.448 266.756C288.315 266.248 287.986 265.807 287.529 265.517C287.073 265.227 286.528 265.111 286.016 265.209C286.016 265.209 286.016 265.209 286.016 265.209C284.764 265.449 283.437 265.756 282.133 266.237C280.405 266.875 278.909 267.683 277.458 268.448C277.45 268.454 277.424 268.468 277.416 268.473C268.386 273.452 259.37 279.108 250.967 284.802L252.238 284.207C242.7 286.042 232.464 287.053 222.545 287.8C221.362 287.878 220.12 287.956 219.11 287.969Z" fill="#F8F8F4"></path><path d="M239.801 288.165C239.703 289.626 240.201 291.013 241.285 292.017C242.364 293.022 243.939 293.562 245.566 293.521C247.194 293.481 248.712 292.863 249.691 291.807C250.675 290.751 251.038 289.343 250.798 287.89C250.798 287.89 250.798 287.89 250.798 287.89C250.782 287.651 250.78 287.681 250.773 287.623C250.769 287.594 250.764 287.561 250.76 287.539C250.752 287.492 250.745 287.452 250.737 287.412C250.722 287.336 250.707 287.263 250.692 287.194C250.663 287.056 250.633 286.92 250.604 286.79C250.545 286.526 250.485 286.268 250.425 286.01C250.102 284.638 249.764 283.3 249.414 281.959C249.41 281.842 249.313 281.505 249.295 281.389C247.686 276.904 246.717 270.097 245.829 264.208L245.83 264.289C245.659 262.801 245.531 261.439 245.582 260.034C245.598 259.562 245.63 259.042 245.649 258.505C245.663 258.015 245.465 257.509 245.132 257.106C244.797 256.701 244.354 256.432 243.869 256.351C243.383 256.27 242.885 256.382 242.451 256.658C242.02 256.934 241.689 257.351 241.563 257.822C241.563 257.822 241.563 257.822 241.563 257.822C241.44 258.273 241.301 258.732 241.163 259.245C240.718 260.856 240.481 262.569 240.302 264.147C240.304 264.163 240.301 264.212 240.303 264.229C239.867 270.586 239.094 276.117 239.888 283.712L239.77 283.141C239.808 284.458 239.834 285.77 239.839 287.059C239.839 287.3 239.839 287.538 239.837 287.772C239.836 287.887 239.835 288.006 239.833 288.115C239.831 288.17 239.83 288.225 239.827 288.271C239.826 288.295 239.825 288.317 239.823 288.331C239.821 288.337 239.82 288.343 239.818 288.339C239.815 288.316 239.815 288.377 239.801 288.165Z" fill="#F8F8F4"></path><path d="M242.979 273.616C241.58 274.323 240.58 275.45 240.28 276.855C239.975 278.255 240.395 279.819 241.367 281.095C242.338 282.371 243.758 283.225 245.231 283.361C246.709 283.503 248.12 282.916 249.236 281.836C249.236 281.836 249.236 281.836 249.236 281.836C249.657 281.468 249.939 281.18 250.225 280.889C252.513 278.498 254.454 276.25 256.501 273.826C256.532 273.805 256.605 273.722 256.635 273.7C258.951 270.765 260.223 267.903 261.47 265.157L261.38 265.287C261.501 265.029 261.638 264.771 261.796 264.5C261.952 264.232 262.13 263.952 262.323 263.655C262.586 263.251 262.677 262.742 262.611 262.266C262.544 261.789 262.325 261.384 261.969 261.115C261.613 260.845 261.138 260.726 260.614 260.756C260.092 260.788 259.565 260.967 259.182 261.281C259.182 261.281 259.182 261.281 259.182 261.281C258.902 261.511 258.606 261.759 258.303 262.03C257.998 262.303 257.686 262.601 257.385 262.915C257.37 262.943 257.307 263.017 257.294 263.045C255.271 265.287 253.202 267.456 251.15 268.796L251.284 268.671C248.826 270.246 246.159 271.908 243.707 273.267C243.432 273.413 243.133 273.573 242.979 273.616Z" fill="#F8F8F4"></path><path d="M338.954 449.639C338.478 450.098 338.213 450.723 338.23 451.386C338.247 452.048 338.543 452.694 339.043 453.172C339.543 453.649 340.203 453.916 340.866 453.902C341.529 453.889 342.142 453.597 342.58 453.101C342.58 453.101 342.58 453.101 342.58 453.101C342.85 452.795 343.131 452.477 343.414 452.159C348.445 446.534 353.497 440.778 358.802 435.606C359.093 435.333 359.397 435.059 359.667 434.836C359.963 434.595 360.153 434.238 360.199 433.851C360.245 433.464 360.145 433.078 359.914 432.772C359.684 432.466 359.34 432.262 358.955 432.198C358.569 432.135 358.173 432.217 357.858 432.433C357.858 432.433 357.858 432.433 357.858 432.433C357.472 432.703 357.115 432.98 356.77 433.254C350.787 438.229 345.389 443.495 339.867 448.759C339.558 449.056 339.251 449.353 338.954 449.639Z" fill="#F8F8F4"></path><path d="M367.816 406.291C376.272 405.379 383.78 411.241 384.687 419.255C385.594 427.269 379.579 434.587 371.123 435.498C362.667 436.409 355.16 430.548 354.253 422.534C353.345 414.52 359.36 407.202 367.816 406.291Z" stroke="#F8F8F4" stroke-width="3"></path></svg>