<svg width="475" height="490" viewBox="0 0 475 490" fill="none" xmlns="http://www.w3.org/2000/svg">
<path d="M176 37C211.064 37 241.645 43.6786 267.729 57.0547C293.802 70.426 314.04 88.6526 328.425 111.735C342.81 134.819 350 160.746 350 189.5C350 197.172 349.59 204.626 348.775 211.862C348.985 211.861 349.194 211.86 349.4 211.86C364.392 211.86 376.634 214.146 386.099 218.75H386.098C395.54 223.09 402.463 229.103 406.829 236.803L407.254 237.525C411.58 245.022 413.74 253.357 413.74 262.52C413.74 277.099 408.362 289.516 397.625 299.742C390.321 306.867 381.528 312.552 371.258 316.808C382.137 317.801 391.9 320.451 400.54 324.771L401.607 325.303C412.558 330.859 421.015 338.339 426.958 347.745L427.548 348.66C433.545 358.156 436.54 368.968 436.54 381.08C436.54 394.593 433.224 406.843 426.588 417.818C419.953 428.791 410.767 437.465 399.039 443.839L399.035 443.841C387.556 449.963 374.68 453.021 360.42 453.021C352.298 453.021 343.039 452.64 332.644 451.879H332.643C322.52 451.12 313.158 450.74 304.56 450.74C296.205 450.74 288.103 450.866 280.256 451.119L280.257 451.12C272.652 451.374 265.68 451.5 259.34 451.5C258.754 451.5 258.444 451.033 258.296 450.588C258.143 450.13 258.08 449.494 258.08 448.72C258.08 447.945 258.143 447.31 258.296 446.852C258.444 446.406 258.755 445.941 259.34 445.94L261.021 445.933C269.302 445.858 275.658 445.229 280.112 444.057C284.812 442.82 287.968 440.368 289.667 436.729C291.394 433.027 292.28 427.54 292.28 420.22V316.248C278.804 327.011 263.603 335.586 246.677 341.968L246.676 341.967C226.617 349.656 205.391 353.5 183 353.5C172.652 353.5 159.807 352.999 144.468 351.999C129.143 351 115.154 350.5 102.5 350.5C90.5046 350.5 79.1765 350.667 68.5156 351C57.8451 351.333 48.3397 351.5 40 351.5C39.3345 351.5 38.9638 350.974 38.7754 350.408C38.5827 349.83 38.5 349.015 38.5 348C38.5 346.985 38.5827 346.17 38.7754 345.592C38.9638 345.026 39.3345 344.5 40 344.5C50.6507 344.5 58.7614 343.667 64.3594 342.021C69.8909 340.393 73.4174 337.166 75.0254 332.342L75.0303 332.328L75.0361 332.314C77.0007 327.403 78 320.145 78 310.5V79C78 69.351 76.9989 62.268 75.04 57.6973L75.0322 57.6777L75.0254 57.6582C73.413 52.8211 70.0414 49.5997 64.8506 47.9775L64.8379 47.9727L64.8242 47.9678C59.5777 46.0004 51.485 45 40.5 45C39.8345 45 39.4638 44.4735 39.2754 43.9082C39.0827 43.33 39 42.5146 39 41.5C39 40.4854 39.0827 39.67 39.2754 39.0918C39.4638 38.5265 39.8345 38 40.5 38C49.1749 38 58.6806 38.3334 69.0166 39L72.9277 39.1172C82.1465 39.3723 92.0039 39.5 102.5 39.5C114.154 39.5 126.809 39.167 140.465 38.501L143.065 38.3193C155.944 37.4399 166.923 37 176 37ZM345.96 326.1C339.64 325.847 333.066 325.846 326.238 326.099L326.239 326.1C323.384 326.209 320.504 326.39 317.6 326.644V420.22C317.6 426.257 318.481 431.117 320.213 434.828C321.91 438.464 325.32 441.178 330.551 442.923C336.059 444.422 344.106 445.18 354.72 445.18C373.645 445.18 387.287 440.385 395.768 430.906L396.176 430.445C404.667 420.722 408.94 407.453 408.94 390.58C408.94 371.685 403.401 356.232 392.352 344.178C381.32 332.143 365.886 326.1 345.98 326.1H345.96ZM181 48C161.343 48 147.264 49.836 138.695 53.4609L138.694 53.46C130.64 57.0076 126.5 65.7415 126.5 80V305C126.5 317.914 129.809 327.422 136.335 333.628L136.644 333.899C139.894 336.683 144.862 338.816 151.604 340.261C158.558 341.751 167.353 342.5 178 342.5C200.917 342.5 221.156 337.021 238.735 326.075C256.312 315.132 270.085 299.209 280.049 278.285L280.05 278.282C290.342 257.034 295.5 231.113 295.5 200.5C295.5 171.888 290.843 146.12 281.537 123.188L281.536 123.186C272.231 99.9229 258.947 81.6674 241.695 68.3965L241.687 68.3896C224.783 54.8007 204.563 48 181 48ZM347.856 218.831C345.761 232.609 342.131 245.565 336.96 257.696L336.959 257.699C331.762 269.693 325.308 280.671 317.6 290.635V316.729C320.351 316.881 322.852 317.013 325.104 317.12H334.2C353.635 317.12 367.393 312.197 375.618 302.477C383.893 292.444 388.04 280.149 388.04 265.56C388.04 256.756 386.405 248.849 383.146 241.83L383.142 241.821L383.138 241.812C380.139 234.565 375.272 228.948 368.525 224.95L368.514 224.943C363.16 221.572 356.282 219.528 347.856 218.831Z" fill="#0D3B66" stroke="#0D3B66"/>
<path d="M221.494 100.225C222.017 99.6531 222.114 99.626 221.504 100.337C219.333 102.865 219.847 102.186 221.494 100.225Z" fill="#0D3B66"/>
<path d="M178.786 302.145C178.373 302.451 178.063 302.891 177.945 303.403C177.827 303.913 177.908 304.449 178.174 304.898C178.439 305.347 178.873 305.68 179.382 305.831C179.892 305.981 180.433 305.933 180.907 305.73C180.907 305.73 180.907 305.73 180.907 305.73C181.035 305.669 181.178 305.606 181.407 305.453C181.635 305.307 181.938 305.009 182.086 304.816C182.379 304.439 182.449 304.336 182.585 304.168C182.828 303.866 183.082 303.569 183.35 303.266C183.886 302.661 184.464 302.045 185.042 301.444C186.212 300.229 187.415 299.033 188.646 297.819C189.004 297.469 189.362 297.131 189.726 296.795C193.251 293.358 197.444 291.377 201.892 286.572C204.713 282.376 204.314 279.995 204.686 277.258C204.865 274.611 204.803 272.082 204.632 269.571C204.274 264.568 203.46 259.676 202.238 254.821C201.846 253.273 201.443 251.791 200.997 250.258C197.77 238.424 192.1 228.419 191.857 218.084C191.466 207.552 194.371 195.51 198.375 185.073C203.741 171.799 209.38 158.383 213.636 144.254C217.497 135.452 215.618 126.652 215.861 118.311C215.777 115.769 217.014 112.526 218.591 109.597C219.387 108.115 220.291 106.657 221.266 105.242C221.754 104.534 222.261 103.836 222.777 103.166C223.04 102.826 223.296 102.503 223.553 102.196C223.604 102.134 223.685 102.041 223.727 101.991C223.745 101.969 223.784 101.927 223.789 101.919C223.792 101.915 223.8 101.906 223.779 101.924C223.767 101.934 223.748 101.952 223.704 101.988C223.681 102.006 223.653 102.029 223.609 102.061C223.587 102.077 223.562 102.096 223.529 102.118C223.513 102.129 223.496 102.141 223.476 102.153C223.463 102.162 223.466 102.16 223.435 102.18C223.353 102.23 223.248 102.295 223.037 102.384C222.816 102.458 222.516 102.633 221.702 102.576C221.301 102.538 220.722 102.375 220.215 101.968C219.702 101.569 219.377 100.989 219.252 100.556C219.014 99.6686 219.172 99.2987 219.216 99.0489C219.281 98.8065 219.337 98.6868 219.379 98.5931C219.435 98.4747 219.416 98.5171 219.426 98.4975C219.43 98.4888 219.435 98.4805 219.439 98.4726C219.447 98.4569 219.455 98.4425 219.462 98.4293C219.492 98.3769 219.513 98.3417 219.531 98.314C219.566 98.2595 219.585 98.2342 219.597 98.218C219.621 98.1865 219.613 98.1992 219.612 98.2021C219.605 98.2133 219.584 98.243 219.553 98.2842C219.512 98.3399 219.455 98.4146 219.381 98.507C218.968 99.0208 218.583 99.503 218.215 99.9485C218.188 99.9834 218.11 100.072 218.145 100.039C218.168 100.018 218.094 100.083 218.266 99.9268C218.32 99.8827 218.368 99.8296 218.591 99.6853C218.719 99.6141 218.855 99.5003 219.342 99.3651C219.592 99.3078 219.966 99.222 220.576 99.346C221.175 99.4474 222.005 99.982 222.36 100.622C223.037 101.944 222.691 102.426 222.676 102.702C222.606 102.968 222.533 103.11 222.514 103.153C222.48 103.227 222.454 103.275 222.433 103.313C222.28 103.573 222.286 103.538 222.273 103.561C222.268 103.565 222.281 103.546 222.297 103.523C222.374 103.417 222.467 103.294 222.552 103.181C222.737 102.937 222.931 102.686 223.115 102.448C223.89 101.45 224.655 100.48 225.442 99.4916C227.904 96.4273 230.452 93.1928 232.984 90.5384C233.363 90.1663 233.589 89.6602 233.604 89.1208C233.619 88.5815 233.422 88.0549 233.055 87.6546C232.689 87.2544 232.18 87.0112 231.64 86.9765C231.099 86.9417 230.572 87.1201 230.166 87.4616C230.166 87.4616 230.166 87.4616 230.166 87.4616C226.97 90.3304 224.361 93.2261 221.599 96.1847C220.731 97.1279 219.889 98.0488 219.022 99.0176C218.815 99.249 218.598 99.493 218.378 99.7441C218.331 99.7963 218.266 99.8722 218.21 99.9369C218.153 100.003 218.108 100.055 218.032 100.146C217.993 100.194 217.988 100.197 217.917 100.289C217.871 100.356 217.855 100.352 217.694 100.628C217.672 100.669 217.645 100.718 217.61 100.793C217.591 100.838 217.517 100.982 217.447 101.249C217.431 101.527 217.085 102.009 217.762 103.332C218.118 103.972 218.948 104.507 219.547 104.608C220.157 104.732 220.532 104.646 220.782 104.589C221.271 104.453 221.408 104.339 221.537 104.267C221.764 104.121 221.817 104.064 221.876 104.015C222.084 103.825 222.017 103.882 222.049 103.852C222.158 103.744 222.238 103.657 222.287 103.607C222.769 103.099 223.167 102.668 223.627 102.166C223.727 102.056 223.813 101.959 223.893 101.869C223.952 101.8 224.005 101.737 224.058 101.671C224.085 101.638 224.108 101.611 224.177 101.516C224.209 101.473 224.243 101.425 224.289 101.352C224.313 101.314 224.34 101.271 224.373 101.211C224.381 101.196 224.39 101.18 224.4 101.162C224.404 101.154 224.409 101.144 224.414 101.135C224.424 101.114 224.404 101.159 224.464 101.032C224.509 100.933 224.567 100.808 224.632 100.562C224.678 100.308 224.835 99.9355 224.598 99.0461C224.472 98.6119 224.146 98.0311 223.633 97.6317C223.125 97.2246 222.545 97.0608 222.143 97.0229C221.327 96.9651 221.024 97.1414 220.799 97.2171C220.584 97.3071 220.475 97.3752 220.388 97.4285C220.354 97.4494 220.358 97.4474 220.344 97.4565C220.322 97.4704 220.303 97.4833 220.285 97.4955C220.249 97.5198 220.22 97.541 220.194 97.56C220.143 97.5981 220.105 97.6282 220.073 97.6546C220.009 97.7069 219.966 97.7453 219.927 97.7807C219.841 97.859 219.84 97.8604 219.799 97.8988C219.738 97.9562 219.653 98.0419 219.617 98.0764C219.528 98.1639 219.407 98.2893 219.333 98.3652C218.971 98.7429 218.658 99.0862 218.332 99.4548C217.695 100.174 217.083 100.907 216.489 101.657C215.303 103.154 214.187 104.711 213.158 106.36C211.156 109.684 209.193 113.256 208.931 118.087C208.263 126.318 209.404 135.201 205.76 141.563C201.047 154.846 195.001 167.825 189.177 181.055C184.339 192.877 180.92 204.678 181.115 218.426C181.432 231.533 187.699 242.565 190.431 253.097C190.847 254.528 191.236 255.91 191.628 257.356C192.784 261.631 193.712 266.039 194.329 270.385C194.633 272.558 194.858 274.728 194.919 276.77C194.948 277.788 194.934 278.768 194.856 279.619C194.819 280.03 194.761 280.422 194.709 280.689C194.666 280.955 194.582 281.119 194.743 280.953C192.627 284.171 187.933 287.886 184.745 292.348C184.409 292.799 184.084 293.252 183.761 293.717C182.752 295.185 181.782 296.648 180.836 298.175C180.368 298.934 179.9 299.715 179.451 300.533C179.228 300.939 179.003 301.369 178.797 301.799C178.703 302.001 178.566 302.274 178.609 302.25C178.63 302.233 178.783 302.091 178.837 302.073C178.892 302.049 178.851 302.094 178.786 302.145Z" fill="#0D3B66"/>
<path d="M191.902 174.384C192.724 175.614 193.971 176.435 195.424 176.624C196.874 176.816 198.411 176.36 199.642 175.399C200.873 174.439 201.682 173.064 201.837 171.621C201.996 170.174 201.487 168.777 200.477 167.694C200.477 167.694 200.477 167.694 200.477 167.694C199.775 166.909 199.219 166.399 198.622 165.843C195.506 163.063 192.621 160.66 188.557 158.376C187.803 158.3 186.061 156.088 184.825 153.834C183.489 151.519 182.282 148.923 180.533 146.238L180.847 147.026C179.707 144.143 179.418 141.102 175.929 137.846C175.915 137.831 175.864 137.795 175.849 137.781C175.446 137.514 175.084 137.297 174.758 137.092C174.209 136.75 173.737 136.423 173.27 136.034C172.88 135.702 172.357 135.532 171.832 135.545C171.305 135.559 170.82 135.755 170.466 136.107C170.111 136.459 169.912 136.942 169.895 137.467C169.878 137.991 170.045 138.515 170.376 138.905C170.376 138.905 170.376 138.905 170.376 138.905C170.91 139.525 171.526 140.119 172.112 140.629C172.458 140.933 172.782 141.206 173.048 141.454L172.968 141.389C173.813 142.39 174.485 145.632 174.908 148.356C174.964 148.523 175.123 148.998 175.222 149.144C177.634 153.729 176.941 159.502 184.04 165.868C186.268 167.638 188.869 170.446 190.937 173.043C191.319 173.53 191.719 174.062 191.902 174.384Z" fill="#0D3B66"/>
<path d="M188.48 246.889C189.495 247.837 190.889 248.301 192.388 248.146C193.885 247.993 195.364 247.232 196.467 246.066C197.57 244.9 198.197 243.434 198.177 242.025C198.16 240.614 197.497 239.376 196.369 238.548C196.369 238.548 196.369 238.548 196.369 238.548C195.443 237.862 194.547 237.247 193.641 236.643C189.406 233.876 185.194 231.295 179.905 229.317C169.47 225.88 159.577 224.221 151.375 219.256L151.657 219.481C148.786 217.192 146.012 215.032 141.92 213.603C141.898 213.594 141.827 213.575 141.804 213.567C141.513 213.498 141.228 213.438 140.947 213.383C139.817 213.163 138.734 213.004 137.665 212.842C137.148 212.765 136.586 212.895 136.108 213.189C135.629 213.484 135.274 213.919 135.114 214.412C134.954 214.906 135.002 215.423 135.242 215.865C135.482 216.306 135.895 216.636 136.394 216.767C137.425 217.037 138.446 217.301 139.389 217.594C139.623 217.666 139.85 217.741 140.066 217.817L139.95 217.781C142.484 218.979 145.13 221.328 147.358 223.639C147.414 223.685 147.577 223.826 147.64 223.864C156.071 230.399 166.912 233.461 175.521 237.454C179.187 239.301 182.94 242.132 186.363 245.01C187.094 245.631 187.839 246.282 188.48 246.889Z" fill="#0D3B66"/>
<path d="M169.573 232.45C170.11 233.822 171.155 234.896 172.534 235.41C173.91 235.926 175.507 235.841 176.918 235.198C178.329 234.556 179.424 233.415 179.907 232.052C180.392 230.688 180.226 229.214 179.499 227.929C179.499 227.929 179.499 227.929 179.499 227.929C179.071 227.161 178.639 226.421 178.203 225.689C174.786 220.28 172.257 215.463 166.575 209.954C162.155 206.391 157.643 201.253 153 196.726L153.066 196.803C152.326 196.042 151.812 195.338 151.29 194.308C150.922 193.592 150.61 192.863 150.321 192.07C150.064 191.365 149.828 190.629 149.603 189.877C149.457 189.385 149.107 188.954 148.652 188.676C148.195 188.398 147.671 188.294 147.172 188.393C146.673 188.492 146.236 188.785 145.936 189.213C145.636 189.641 145.498 190.168 145.573 190.674C145.573 190.674 145.573 190.674 145.573 190.674C145.697 191.501 145.837 192.332 146.017 193.183C146.216 194.131 146.479 195.122 146.81 196.078C147.246 197.41 148.018 198.947 148.918 200.155C148.931 200.17 148.969 200.218 148.983 200.232C152.957 205.332 156.248 210.569 161.204 215.925C163.706 219.168 166.549 225.249 168.719 230.336C169.018 231.049 169.311 231.767 169.573 232.45Z" fill="#0D3B66"/>
<path d="M182.871 218.999C182.125 220.224 181.925 221.694 182.337 223.101C182.748 224.507 183.738 225.734 185.065 226.497C186.392 227.261 187.941 227.496 189.347 227.135C190.755 226.776 191.904 225.851 192.566 224.578C192.566 224.578 192.566 224.578 192.566 224.578C192.267 225.073 192.282 224.991 192.272 225.011C192.274 225.002 192.307 224.956 192.349 224.902C192.431 224.797 192.545 224.659 192.674 224.509C192.915 224.227 193.202 223.903 193.478 223.596C194.045 222.964 194.636 222.321 195.228 221.678C199.673 216.874 204.227 212.013 208.628 206.986C214.181 198.238 215.286 192.08 218.309 184.751C223.143 170.755 224.587 157.075 227.862 143.593L227.849 143.64C228.792 139.917 229.786 136.236 231.14 132.77C231.176 132.676 231.214 132.579 231.251 132.486C231.841 130.969 232.511 129.478 233.165 127.892C233.363 127.41 233.355 126.854 233.152 126.351C232.947 125.848 232.564 125.439 232.076 125.21C231.589 124.982 231.035 124.951 230.527 125.12C230.02 125.289 229.601 125.644 229.371 126.112C229.371 126.112 229.371 126.112 229.371 126.112C228.655 127.571 227.859 129.071 227.134 130.625C227.089 130.72 227.043 130.819 226.997 130.915C225.287 134.573 224.01 138.332 222.799 142.067C222.797 142.076 222.788 142.105 222.786 142.114C218.645 155.426 216.031 169.583 210.941 181.558C207.902 188.097 204.42 196.641 201.613 200.522C197.021 205.118 192.258 209.578 187.443 214.139C186.795 214.755 186.144 215.376 185.479 216.025C185.153 216.343 184.807 216.685 184.463 217.036C184.277 217.227 184.098 217.413 183.898 217.632C183.792 217.749 183.681 217.874 183.548 218.033C183.392 218.235 183.266 218.337 182.871 218.999Z" fill="#0D3B66"/>
<path d="M206.119 196.959C204.681 197.193 203.443 197.989 202.688 199.22C201.933 200.448 201.723 202.009 202.093 203.514C202.462 205.019 203.378 206.33 204.628 207.111C205.878 207.895 207.358 208.086 208.756 207.688C208.756 207.688 208.756 207.688 208.756 207.688C209.25 207.565 209.372 207.508 209.585 207.435C209.738 207.379 209.914 207.312 210.045 207.259C210.327 207.146 210.577 207.04 210.847 206.925C211.342 206.712 211.842 206.488 212.312 206.273C222.882 201.33 232.703 195.774 242.477 189.948C242.549 189.916 242.746 189.787 242.813 189.746C247.644 186.071 252.45 181.744 256.873 178.628L256.717 178.702C257.212 178.445 257.691 178.253 258.28 178.075C259.125 177.82 260.091 177.606 261.06 177.394C261.564 177.285 262.009 176.968 262.3 176.53C262.591 176.091 262.705 175.568 262.612 175.057C262.52 174.546 262.229 174.086 261.8 173.76C261.371 173.435 260.84 173.272 260.326 173.323C260.326 173.323 260.326 173.323 260.326 173.323C259.302 173.428 258.282 173.528 257.164 173.726C256.397 173.861 255.545 174.081 254.767 174.377C254.736 174.392 254.641 174.433 254.611 174.451C248.697 177.656 244.102 181.046 238.872 184.128L239.209 183.925C229 188.518 218.585 192.89 208.215 196.35C207.77 196.494 207.303 196.642 206.88 196.767C206.652 196.836 206.447 196.894 206.258 196.945C206.17 196.967 206.067 196.994 206.011 197.004C205.961 197.016 205.84 197.033 206.119 196.959Z" fill="#0D3B66"/>
<path d="M221.958 162.575C220.482 162.665 219.202 163.33 218.424 164.529C217.644 165.722 217.43 167.35 217.804 168.951C218.178 170.552 219.103 171.965 220.35 172.775C221.599 173.591 223.069 173.738 224.46 173.286C224.46 173.286 224.46 173.286 224.46 173.286C225.012 173.123 225.526 172.95 226.025 172.77C231.544 170.721 236.319 167.806 240.479 164.168C240.617 164.097 240.926 163.774 241.043 163.674C242.448 161.704 243.654 159.502 244.638 157.575L244.579 157.654C244.737 157.37 244.802 157.226 244.939 157.04C245.072 156.858 245.27 156.655 245.509 156.448C245.787 156.206 246.111 155.961 246.453 155.719C246.846 155.446 247.118 154.997 247.226 154.502C247.333 154.006 247.268 153.504 247.027 153.076C246.786 152.648 246.384 152.32 245.892 152.133C245.401 151.947 244.86 151.919 244.405 152.083C244.405 152.083 244.405 152.083 244.405 152.083C243.943 152.258 243.477 152.445 242.99 152.68C242.19 153.037 241.123 153.792 240.481 154.511C240.471 154.528 240.431 154.573 240.422 154.591C238.855 156.328 237.462 157.772 235.849 159.11L236.413 158.616C232.197 160.719 227.528 162.067 223.064 162.509C222.679 162.543 222.289 162.57 221.958 162.575Z" fill="#0D3B66"/>
<path d="M200.11 275.969C198.65 275.999 197.303 276.611 196.369 277.71C195.434 278.806 194.989 280.3 195.128 281.822C195.267 283.345 195.977 284.76 197.099 285.718C198.221 286.678 199.663 287.101 201.11 286.935C201.11 286.935 201.11 286.935 201.11 286.935C202.532 286.775 203.753 286.578 205.016 286.377C215.286 284.623 225.198 282.728 235.366 279.773C235.661 279.711 236.387 279.34 236.638 279.178C244.682 272.543 252.574 266.484 261.091 260.666L261.049 260.691C262.383 259.814 263.668 258.972 264.931 258.367C265.888 257.904 266.931 257.549 268.069 257.217C268.568 257.072 268.992 256.724 269.251 256.263C269.509 255.801 269.582 255.264 269.448 254.756C269.315 254.248 268.986 253.807 268.529 253.517C268.073 253.227 267.528 253.111 267.016 253.209C267.016 253.209 267.016 253.209 267.016 253.209C265.764 253.449 264.437 253.756 263.133 254.237C261.405 254.875 259.909 255.683 258.458 256.448C258.45 256.454 258.424 256.468 258.416 256.473C249.386 261.452 240.37 267.108 231.967 272.802L233.238 272.207C223.7 274.042 213.464 275.053 203.545 275.8C202.362 275.878 201.12 275.956 200.11 275.969Z" fill="#0D3B66"/>
<path d="M220.801 276.165C220.703 277.626 221.201 279.013 222.285 280.017C223.364 281.022 224.939 281.562 226.566 281.521C228.194 281.481 229.712 280.863 230.691 279.807C231.675 278.751 232.038 277.343 231.798 275.89C231.798 275.89 231.798 275.89 231.798 275.89C231.782 275.651 231.78 275.681 231.773 275.623C231.769 275.594 231.764 275.561 231.76 275.539C231.752 275.492 231.745 275.452 231.737 275.412C231.722 275.336 231.707 275.263 231.692 275.194C231.663 275.056 231.633 274.92 231.604 274.79C231.545 274.526 231.485 274.268 231.425 274.01C231.102 272.638 230.763 271.3 230.414 269.959C230.41 269.842 230.313 269.505 230.295 269.389C228.686 264.904 227.717 258.097 226.829 252.208L226.83 252.289C226.659 250.801 226.531 249.439 226.582 248.034C226.598 247.562 226.63 247.042 226.649 246.505C226.663 246.015 226.465 245.509 226.132 245.106C225.797 244.701 225.354 244.432 224.869 244.351C224.383 244.27 223.885 244.382 223.451 244.658C223.02 244.934 222.689 245.351 222.563 245.822C222.563 245.822 222.563 245.822 222.563 245.822C222.44 246.273 222.301 246.732 222.163 247.245C221.718 248.856 221.481 250.569 221.302 252.147C221.304 252.163 221.301 252.212 221.303 252.229C220.867 258.586 220.094 264.117 220.888 271.712L220.77 271.141C220.808 272.458 220.834 273.77 220.839 275.059C220.839 275.3 220.839 275.538 220.837 275.772C220.836 275.887 220.835 276.006 220.832 276.115C220.831 276.17 220.83 276.225 220.827 276.271C220.826 276.295 220.825 276.317 220.823 276.331C220.821 276.337 220.82 276.343 220.818 276.339C220.815 276.316 220.815 276.377 220.801 276.165Z" fill="#0D3B66"/>
<path d="M223.979 261.616C222.58 262.323 221.58 263.45 221.28 264.855C220.975 266.255 221.395 267.819 222.367 269.095C223.338 270.371 224.758 271.225 226.231 271.361C227.709 271.503 229.12 270.916 230.236 269.836C230.236 269.836 230.236 269.836 230.236 269.836C230.657 269.468 230.939 269.18 231.225 268.889C233.513 266.498 235.454 264.25 237.501 261.826C237.532 261.805 237.605 261.722 237.635 261.7C239.951 258.765 241.223 255.903 242.47 253.157L242.38 253.287C242.501 253.029 242.638 252.771 242.796 252.5C242.952 252.232 243.13 251.952 243.323 251.655C243.586 251.251 243.677 250.742 243.611 250.266C243.544 249.789 243.325 249.384 242.969 249.115C242.613 248.845 242.138 248.726 241.614 248.756C241.092 248.788 240.565 248.967 240.182 249.281C240.182 249.281 240.182 249.281 240.182 249.281C239.902 249.511 239.606 249.759 239.303 250.03C238.998 250.303 238.686 250.601 238.385 250.915C238.37 250.943 238.307 251.017 238.294 251.045C236.271 253.287 234.202 255.456 232.15 256.796L232.284 256.671C229.826 258.246 227.159 259.908 224.707 261.267C224.432 261.413 224.133 261.573 223.979 261.616Z" fill="#0D3B66"/>
<path d="M319.954 437.639C319.478 438.098 319.213 438.723 319.23 439.386C319.247 440.048 319.543 440.694 320.043 441.172C320.543 441.649 321.203 441.916 321.866 441.902C322.529 441.889 323.142 441.597 323.58 441.101C323.58 441.101 323.58 441.101 323.58 441.101C323.85 440.795 324.131 440.477 324.414 440.159C329.445 434.534 334.497 428.778 339.802 423.606C340.093 423.333 340.397 423.059 340.667 422.836C340.963 422.595 341.153 422.238 341.199 421.851C341.245 421.464 341.145 421.078 340.914 420.772C340.684 420.466 340.34 420.262 339.955 420.198C339.569 420.135 339.173 420.217 338.858 420.433C338.858 420.433 338.858 420.433 338.858 420.433C338.472 420.703 338.115 420.98 337.77 421.254C331.787 426.229 326.389 431.495 320.867 436.759C320.558 437.056 320.251 437.353 319.954 437.639Z" fill="#0D3B66"/>
<path d="M348.816 394.291C357.272 393.379 364.78 399.241 365.687 407.255C366.594 415.269 360.579 422.587 352.123 423.498C343.667 424.409 336.16 418.548 335.253 410.534C334.345 402.52 340.36 395.202 348.816 394.291Z" stroke="#0D3B66" stroke-width="3"/>
</svg>
